<svg  viewBox="0 0 330 350" xmlns="http://www.w3.org/2000/svg" xmlns:xlink="http://www.w3.org/1999/xlink">
<defs>
<linearGradient id="linear-gradient" x1="46.37" y1="59.71" x2="15.42" y2="6.11" gradientTransform="matrix(1, 0, 0, -1, 0, 64)" gradientUnits="userSpaceOnUse">
<stop offset="0" stop-color="#ff980e"/>
<stop offset="0.21" stop-color="#ff7139"/>
<stop offset="0.36" stop-color="#ff5854"/>
<stop offset="0.46" stop-color="#ff4f5e"/>
<stop offset="0.69" stop-color="#ff3750"/>
<stop offset="0.86" stop-color="#f92261"/>
<stop offset="1" stop-color="#f5156c"/>
</linearGradient>
</defs>
<path d="M 147.86 118.5 c 20.3 7.42 44.65 -8.2 54.42 -34.88 s 1.23 -54.34 -19.06 -61.76 s -44.65 8.15 -54.4 34.88 s -1.24 54.34 19.05 61.76 z m -77.1 42.55 c 21.22 -1.84 36.47 -26 34 -53.88 S 83.24 58.1 62 59.94 S 25.56 85.9 28 113.83 s 21.55 49.06 42.77 47.22 z m 165.28 -0.95 c 18.63 10.94 45.4 -0.05 59.8 -24.55 s 11 -53.25 -7.67 -64.2 s -45.4 0.06 -59.8 24.56 s -10.95 53.24 7.67 64.18 z m 99.77 29.05 c -12.08 -17.55 -40.58 -18.9 -63.67 -3 s -32 43 -19.94 60.54 s 40.58 18.9 63.66 3 s 32.02 -43 19.95 -60.54 z M 205.996 180.46 a 34.349 34.349 90 0 0 -52.15 -24.612 c -10.654 6.461 -17.5 14.91 -26.6 18.592 s -34.86 -7.301 -50.848 21.742 c -11.298 20.51 -0.931 46.445 20.244 56.441 c 16.1 7.595 28.84 6.741 38.185 11.158 s 16.8 14.784 32.9 22.4 c 21.175 9.989 47.789 1.512 56.441 -20.251 c 12.25 -30.8 -12.565 -43.645 -15.54 -53.074 s -0.84 -20.069 -2.625 -32.396 z" fill="url(#linear-gradient)"/>
</svg>